{
  "accessors": [
    {
      "bufferView": 2,
      "componentType": 5126,
      "count": 4620,
      "max": [
        1.4929454326629639,
        2.131638526916504,
        3.4591002464294434
      ],
      "min": [
        -1.745558500289917,
        0.7802333831787109,
        -3.225313186645508
      ],
      "type": "VEC3"
    },
    {
      "bufferView": 2,
      "byteOffset": 55440,
      "componentType": 5126,
      "count": 4620,
      "max": [
        0.9915828704833984,
        0.9999690055847168,
        0.9986228942871094
      ],
      "min": [
        -0.9915815591812134,
        -0.9999961853027344,
        -0.9971538186073303
      ],
      "type": "VEC3"
    },
    {
      "bufferView": 1,
      "componentType": 5126,
      "count": 4620,
      "max": [
        1.0,
        1.0
      ],
      "min": [
        0.0,
        -7.828930392861366e-09
      ],
      "type": "VEC2"
    },
    {
      "bufferView": 1,
      "byteOffset": 36960,
      "componentType": 5126,
      "count": 4620,
      "max": [
        0.0,
        0.0
      ],
      "min": [
        0.0,
        0.0
      ],
      "type": "VEC2"
    },
    {
      "bufferView": 0,
      "componentType": 5125,
      "count": 20256,
      "type": "SCALAR"
    },
    {
      "bufferView": 2,
      "byteOffset": 110880,
      "componentType": 5126,
      "count": 23313,
      "max": [
        1.6990690231323242,
        27.010120391845703,
        2.864201068878174
      ],
      "min": [
        -1.9516808986663818,
        0.6086196899414063,
        -2.6237359046936035
      ],
      "type": "VEC3"
    },
    {
      "bufferView": 2,
      "byteOffset": 390636,
      "componentType": 5126,
      "count": 23313,
      "max": [
        1.0,
        0.9999999403953552,
        1.0
      ],
      "min": [
        -1.0,
        -0.9999985694885254,
        -0.9999997615814209
      ],
      "type": "VEC3"
    },
    {
      "bufferView": 1,
      "byteOffset": 73920,
      "componentType": 5126,
      "count": 23313,
      "max": [
        1.0000001192092896,
        1.0
      ],
      "min": [
        -7.450581307466564e-08,
        0.0
      ],
      "type": "VEC2"
    },
    {
      "bufferView": 1,
      "byteOffset": 260424,
      "componentType": 5126,
      "count": 23313,
      "max": [
        0.0,
        0.0
      ],
      "min": [
        0.0,
        0.0
      ],
      "type": "VEC2"
    },
    {
      "bufferView": 0,
      "byteOffset": 81024,
      "componentType": 5125,
      "count": 112296,
      "type": "SCALAR"
    },
    {
      "bufferView": 2,
      "byteOffset": 670392,
      "componentType": 5126,
      "count": 33174,
      "max": [
        0.922741711139679,
        20.55759048461914,
        1.3437130451202393
      ],
      "min": [
        -1.1753652095794678,
        19.2332763671875,
        -1.7729268074035645
      ],
      "type": "VEC3"
    },
    {
      "bufferView": 2,
      "byteOffset": 1068480,
      "componentType": 5126,
      "count": 33174,
      "max": [
        0.9999620318412781,
        0.9999560713768005,
        0.9999454021453857
      ],
      "min": [
        -0.9999620318412781,
        -0.9998941421508789,
        -0.9999416470527649
      ],
      "type": "VEC3"
    },
    {
      "bufferView": 1,
      "byteOffset": 446928,
      "componentType": 5126,
      "count": 33174,
      "max": [
        0.0,
        0.0
      ],
      "min": [
        0.0,
        0.0
      ],
      "type": "VEC2"
    },
    {
      "bufferView": 1,
      "byteOffset": 712320,
      "componentType": 5126,
      "count": 33174,
      "max": [
        1.041700005531311,
        1.0
      ],
      "min": [
        0.04170000180602074,
        0.6488999724388123
      ],
      "type": "VEC2"
    },
    {
      "bufferView": 0,
      "byteOffset": 530208,
      "componentType": 5125,
      "count": 235104,
      "type": "SCALAR"
    },
    {
      "bufferView": 2,
      "byteOffset": 1466568,
      "componentType": 5126,
      "count": 11076,
      "max": [
        1.4658808708190918,
        5.647932052612305,
        2.7932910919189453
      ],
      "min": [
        -1.7184932231903076,
        0.8172273635864258,
        -2.562180995941162
      ],
      "type": "VEC3"
    },
    {
      "bufferView": 2,
      "byteOffset": 1599480,
      "componentType": 5126,
      "count": 11076,
      "max": [
        0.9991785883903503,
        0.9998904466629028,
        0.9964474439620972
      ],
      "min": [
        -0.9995865225791931,
        -0.9854695796966553,
        -0.9995293617248535
      ],
      "type": "VEC3"
    },
    {
      "bufferView": 1,
      "byteOffset": 977712,
      "componentType": 5126,
      "count": 11076,
      "max": [
        0.0,
        0.0
      ],
      "min": [
        0.0,
        0.0
      ],
      "type": "VEC2"
    },
    {
      "bufferView": 1,
      "byteOffset": 1066320,
      "componentType": 5126,
      "count": 11076,
      "max": [
        1.0000001192092896,
        0.9103699326515198
      ],
      "min": [
        0.0,
        0.0
      ],
      "type": "VEC2"
    },
    {
      "bufferView": 0,
      "byteOffset": 1470624,
      "componentType": 5125,
      "count": 38880,
      "type": "SCALAR"
    },
    {
      "bufferView": 2,
      "byteOffset": 1732392,
      "componentType": 5126,
      "count": 17730,
      "max": [
        1.3275387287139893,
        20.557044982910156,
        1.4357306957244873
      ],
      "min": [
        -1.7006504535675049,
        10.77582836151123,
        -1.759789228439331
      ],
      "type": "VEC3"
    },
    {
      "bufferView": 2,
      "byteOffset": 1945152,
      "componentType": 5126,
      "count": 17730,
      "max": [
        0.9999995231628418,
        0.9998632073402405,
        0.9998618364334106
      ],
      "min": [
        -0.9999840259552002,
        -0.9995536208152771,
        -0.9999553561210632
      ],
      "type": "VEC3"
    },
    {
      "bufferView": 1,
      "byteOffset": 1154928,
      "componentType": 5126,
      "count": 17730,
      "max": [
        0.0,
        0.0
      ],
      "min": [
        0.0,
        0.0
      ],
      "type": "VEC2"
    },
    {
      "bufferView": 1,
      "byteOffset": 1296768,
      "componentType": 5126,
      "count": 17730,
      "max": [
        0.9879143834114075,
        1.0
      ],
      "min": [
        0.0,
        0.0
      ],
      "type": "VEC2"
    },
    {
      "bufferView": 0,
      "byteOffset": 1626144,
      "componentType": 5125,
      "count": 70038,
      "type": "SCALAR"
    },
    {
      "bufferView": 2,
      "byteOffset": 2157912,
      "componentType": 5126,
      "count": 5048,
      "max": [
        1.086989402770996,
        2.120448112487793,
        1.33945894241333
      ],
      "min": [
        -1.3396022319793701,
        1.977334976196289,
        -1.1447501182556152
      ],
      "type": "VEC3"
    },
    {
      "bufferView": 2,
      "byteOffset": 2218488,
      "componentType": 5126,
      "count": 5048,
      "max": [
        0.9984568357467651,
        0.9999968409538269,
        0.9999157786369324
      ],
      "min": [
        -0.9984561204910278,
        -0.9999974966049194,
        -0.9999158978462219
      ],
      "type": "VEC3"
    },
    {
      "bufferView": 1,
      "byteOffset": 1438608,
      "componentType": 5126,
      "count": 5048,
      "max": [
        0.0,
        0.0
      ],
      "min": [
        0.0,
        0.0
      ],
      "type": "VEC2"
    },
    {
      "bufferView": 1,
      "byteOffset": 1478992,
      "componentType": 5126,
      "count": 5048,
      "max": [
        1.041700005531311,
        1.0
      ],
      "min": [
        0.04170000180602074,
        0.3409999907016754
      ],
      "type": "VEC2"
    },
    {
      "bufferView": 0,
      "byteOffset": 1906296,
      "componentType": 5125,
      "count": 25440,
      "type": "SCALAR"
    },
    {
      "bufferView": 2,
      "byteOffset": 2279064,
      "componentType": 5126,
      "count": 26016,
      "max": [
        1.568239450454712,
        1.9389538764953613,
        2.8007726669311523
      ],
      "min": [
        -1.8208518028259277,
        0.4717903137207031,
        -2.558468818664551
      ],
      "type": "VEC3"
    },
    {
      "bufferView": 2,
      "byteOffset": 2591256,
      "componentType": 5126,
      "count": 26016,
      "max": [
        0.999999463558197,
        0.9999056458473206,
        0.9999579191207886
      ],
      "min": [
        -0.999999463558197,
        -0.9999856352806091,
        -0.9998995661735535
      ],
      "type": "VEC3"
    },
    {
      "bufferView": 1,
      "byteOffset": 1519376,
      "componentType": 5126,
      "count": 26016,
      "max": [
        0.0,
        0.0
      ],
      "min": [
        0.0,
        0.0
      ],
      "type": "VEC2"
    },
    {
      "bufferView": 1,
      "byteOffset": 1727504,
      "componentType": 5126,
      "count": 26016,
      "max": [
        0.9999999403953552,
        0.9974997043609619
      ],
      "min": [
        0.0,
        0.0
      ],
      "type": "VEC2"
    },
    {
      "bufferView": 0,
      "byteOffset": 2008056,
      "componentType": 5125,
      "count": 102708,
      "type": "SCALAR"
    },
    {
      "bufferView": 2,
      "byteOffset": 2903448,
      "componentType": 5126,
      "count": 18704,
      "max": [
        1.4815254211425781,
        1.9219436645507813,
        1.3703477382659912
      ],
      "min": [
        -1.734137773513794,
        0.5772066116333008,
        -1.1604034900665283
      ],
      "type": "VEC3"
    },
    {
      "bufferView": 2,
      "byteOffset": 3127896,
      "componentType": 5126,
      "count": 18704,
      "max": [
        0.9999998807907104,
        0.9999700784683228,
        0.9998711347579956
      ],
      "min": [
        -0.9999998807907104,
        -0.9998664259910583,
        -0.9999881982803345
      ],
      "type": "VEC3"
    },
    {
      "bufferView": 1,
      "byteOffset": 1935632,
      "componentType": 5126,
      "count": 18704,
      "max": [
        0.9980793595314026,
        0.9845251441001892
      ],
      "min": [
        0.0019206387223675847,
        0.0019315319368615746
      ],
      "type": "VEC2"
    },
    {
      "bufferView": 1,
      "byteOffset": 2085264,
      "componentType": 5126,
      "count": 18704,
      "max": [
        0.0,
        0.0
      ],
      "min": [
        0.0,
        0.0
      ],
      "type": "VEC2"
    },
    {
      "bufferView": 0,
      "byteOffset": 2418888,
      "componentType": 5125,
      "count": 75552,
      "type": "SCALAR"
    },
    {
      "bufferView": 2,
      "byteOffset": 3352344,
      "componentType": 5126,
      "count": 53768,
      "max": [
        1.501878023147583,
        1.9465827941894531,
        1.5132801532745361
      ],
      "min": [
        -1.7544901371002197,
        0.7827529907226563,
        -1.2953693866729736
      ],
      "type": "VEC3"
    },
    {
      "bufferView": 2,
      "byteOffset": 3997560,
      "componentType": 5126,
      "count": 53768,
      "max": [
        0.9917985200881958,
        0.9991540908813477,
        0.9877668619155884
      ],
      "min": [
        -0.9918029308319092,
        -0.9991579651832581,
        -0.9877684712409973
      ],
      "type": "VEC3"
    },
    {
      "bufferView": 1,
      "byteOffset": 2234896,
      "componentType": 5126,
      "count": 53768,
      "max": [
        0.9573410749435425,
        0.9627996683120728
      ],
      "min": [
        0.0019206387223675847,
        0.49826958775520325
      ],
      "type": "VEC2"
    },
    {
      "bufferView": 1,
      "byteOffset": 2665040,
      "componentType": 5126,
      "count": 53768,
      "max": [
        0.0,
        0.0
      ],
      "min": [
        0.0,
        0.0
      ],
      "type": "VEC2"
    },
    {
      "bufferView": 0,
      "byteOffset": 2721096,
      "componentType": 5125,
      "count": 207552,
      "type": "SCALAR"
    },
    {
      "bufferView": 2,
      "byteOffset": 4642776,
      "componentType": 5126,
      "count": 9504,
      "max": [
        1.5039708614349365,
        1.9359722137451172,
        1.3666539192199707
      ],
      "min": [
        -1.7565829753875732,
        0.800452709197998,
        -1.1325368881225586
      ],
      "type": "VEC3"
    },
    {
      "bufferView": 2,
      "byteOffset": 4756824,
      "componentType": 5126,
      "count": 9504,
      "max": [
        0.9996767640113831,
        0.9989669919013977,
        0.9877671599388123
      ],
      "min": [
        -0.9996767640113831,
        -0.9983437657356262,
        -0.988067090511322
      ],
      "type": "VEC3"
    },
    {
      "bufferView": 1,
      "byteOffset": 3095184,
      "componentType": 5126,
      "count": 9504,
      "max": [
        0.8978984951972961,
        0.9980683922767639
      ],
      "min": [
        0.23825295269489288,
        0.0019315319368615746
      ],
      "type": "VEC2"
    },
    {
      "bufferView": 1,
      "byteOffset": 3171216,
      "componentType": 5126,
      "count": 9504,
      "max": [
        0.0,
        0.0
      ],
      "min": [
        0.0,
        0.0
      ],
      "type": "VEC2"
    },
    {
      "bufferView": 0,
      "byteOffset": 3551304,
      "componentType": 5125,
      "count": 42672,
      "type": "SCALAR"
    },
    {
      "bufferView": 2,
      "byteOffset": 4870872,
      "componentType": 5126,
      "count": 10450,
      "max": [
        1.4437000751495361,
        0.8722972869873047,
        2.6549434661865234
      ],
      "min": [
        -1.6963119506835938,
        0.13779401779174805,
        -2.402843475341797
      ],
      "type": "VEC3"
    },
    {
      "bufferView": 2,
      "byteOffset": 4996272,
      "componentType": 5126,
      "count": 10450,
      "max": [
        0.9984499216079712,
        0.999847412109375,
        0.9973247647285461
      ],
      "min": [
        -0.9984500408172607,
        -0.657274067401886,
        -0.9992702007293701
      ],
      "type": "VEC3"
    },
    {
      "bufferView": 1,
      "byteOffset": 3247248,
      "componentType": 5126,
      "count": 10450,
      "max": [
        0.9998855590820313,
        1.0
      ],
      "min": [
        0.0,
        0.0
      ],
      "type": "VEC2"
    },
    {
      "bufferView": 1,
      "byteOffset": 3330848,
      "componentType": 5126,
      "count": 10450,
      "max": [
        0.0,
        0.0
      ],
      "min": [
        0.0,
        0.0
      ],
      "type": "VEC2"
    },
    {
      "bufferView": 0,
      "byteOffset": 3721992,
      "componentType": 5125,
      "count": 36480,
      "type": "SCALAR"
    }
  ],
  "asset": {
    "extras": {
      "author": "Ret.ouchs (https://sketchfab.com/ret.ouchs)",
      "license": "CC-BY-4.0 (http://creativecommons.org/licenses/by/4.0/)",
      "source": "https://sketchfab.com/3d-models/rocket-75d8f8cc8c2b4598b694edfe67e073e8",
      "title": "ROCKET"
    },
    "generator": "Sketchfab-12.82.2",
    "version": "2.0"
  },
  "bufferViews": [
    {
      "buffer": 0,
      "byteLength": 3867912,
      "name": "floatBufferViews",
      "target": 34963
    },
    {
      "buffer": 0,
      "byteLength": 3414448,
      "byteOffset": 3867912,
      "byteStride": 8,
      "name": "floatBufferViews",
      "target": 34962
    },
    {
      "buffer": 0,
      "byteLength": 5121672,
      "byteOffset": 7282360,
      "byteStride": 12,
      "name": "floatBufferViews",
      "target": 34962
    }
  ],
  "buffers": [
    {
      "byteLength": 12404032,
      "uri": "scene.bin"
    }
  ],
  "images": [
    {
      "uri": "textures/main_SMR_baseColor.jpeg"
    }
  ],
  "materials": [
    {
      "doubleSided": true,
      "name": "fins",
      "pbrMetallicRoughness": {
        "baseColorFactor": [
          1.0,
          0.9017539999999999,
          0.879777,
          1.0
        ],
        "metallicFactor": 0.863636,
        "roughnessFactor": 0.872727
      }
    },
    {
      "doubleSided": true,
      "name": "main_SMR",
      "pbrMetallicRoughness": {
        "baseColorTexture": {
          "index": 0
        },
        "metallicFactor": 0.6738183765182207,
        "roughnessFactor": 0.4477118677911376
      }
    },
    {
      "doubleSided": true,
      "name": "top_side",
      "pbrMetallicRoughness": {
        "baseColorFactor": [
          0.8,
          0.8,
          0.8,
          1.0
        ],
        "metallicFactor": 0.736364,
        "roughnessFactor": 0.245455
      }
    },
    {
      "doubleSided": true,
      "name": "piece_small",
      "pbrMetallicRoughness": {
        "baseColorFactor": [
          0.5,
          0.5,
          0.5,
          1.0
        ]
      }
    },
    {
      "doubleSided": true,
      "name": "middle_species",
      "pbrMetallicRoughness": {
        "baseColorFactor": [
          0.5,
          0.5,
          0.5,
          1.0
        ],
        "metallicFactor": 0.9752937214876649,
        "roughnessFactor": 0.27185124989229514
      }
    },
    {
      "doubleSided": true,
      "name": "KB7.004",
      "pbrMetallicRoughness": {
        "baseColorFactor": [
          0.5,
          0.5,
          0.5,
          1.0
        ]
      }
    },
    {
      "doubleSided": true,
      "name": "bottom",
      "pbrMetallicRoughness": {
        "baseColorFactor": [
          0.5,
          0.5,
          0.5,
          1.0
        ]
      }
    },
    {
      "doubleSided": true,
      "name": "rubber"
    },
    {
      "doubleSided": true,
      "name": "metal"
    },
    {
      "doubleSided": true,
      "name": "rubber2"
    },
    {
      "doubleSided": true,
      "emissiveFactor": [
        0.4594144284531966,
        0.1125083858836428,
        0.0019396821879227174
      ],
      "name": "exhausters",
      "pbrMetallicRoughness": {
        "baseColorFactor": [
          0.0,
          0.0,
          0.0,
          1.0
        ],
        "roughnessFactor": 0.5670458585082093
      }
    }
  ],
  "meshes": [
    {
      "name": "Object_0",
      "primitives": [
        {
          "attributes": {
            "NORMAL": 1,
            "POSITION": 0,
            "TEXCOORD_0": 2,
            "TEXCOORD_1": 3
          },
          "indices": 4,
          "material": 0,
          "mode": 4
        }
      ]
    },
    {
      "name": "Object_1",
      "primitives": [
        {
          "attributes": {
            "NORMAL": 6,
            "POSITION": 5,
            "TEXCOORD_0": 7,
            "TEXCOORD_1": 8
          },
          "indices": 9,
          "material": 1,
          "mode": 4
        }
      ]
    },
    {
      "name": "Object_2",
      "primitives": [
        {
          "attributes": {
            "NORMAL": 11,
            "POSITION": 10,
            "TEXCOORD_0": 12,
            "TEXCOORD_1": 13
          },
          "indices": 14,
          "material": 2,
          "mode": 4
        }
      ]
    },
    {
      "name": "Object_3",
      "primitives": [
        {
          "attributes": {
            "NORMAL": 16,
            "POSITION": 15,
            "TEXCOORD_0": 17,
            "TEXCOORD_1": 18
          },
          "indices": 19,
          "material": 3,
          "mode": 4
        }
      ]
    },
    {
      "name": "Object_4",
      "primitives": [
        {
          "attributes": {
            "NORMAL": 21,
            "POSITION": 20,
            "TEXCOORD_0": 22,
            "TEXCOORD_1": 23
          },
          "indices": 24,
          "material": 4,
          "mode": 4
        }
      ]
    },
    {
      "name": "Object_5",
      "primitives": [
        {
          "attributes": {
            "NORMAL": 26,
            "POSITION": 25,
            "TEXCOORD_0": 27,
            "TEXCOORD_1": 28
          },
          "indices": 29,
          "material": 5,
          "mode": 4
        }
      ]
    },
    {
      "name": "Object_6",
      "primitives": [
        {
          "attributes": {
            "NORMAL": 31,
            "POSITION": 30,
            "TEXCOORD_0": 32,
            "TEXCOORD_1": 33
          },
          "indices": 34,
          "material": 6,
          "mode": 4
        }
      ]
    },
    {
      "name": "Object_7",
      "primitives": [
        {
          "attributes": {
            "NORMAL": 36,
            "POSITION": 35,
            "TEXCOORD_0": 37,
            "TEXCOORD_1": 38
          },
          "indices": 39,
          "material": 7,
          "mode": 4
        }
      ]
    },
    {
      "name": "Object_8",
      "primitives": [
        {
          "attributes": {
            "NORMAL": 41,
            "POSITION": 40,
            "TEXCOORD_0": 42,
            "TEXCOORD_1": 43
          },
          "indices": 44,
          "material": 8,
          "mode": 4
        }
      ]
    },
    {
      "name": "Object_9",
      "primitives": [
        {
          "attributes": {
            "NORMAL": 46,
            "POSITION": 45,
            "TEXCOORD_0": 47,
            "TEXCOORD_1": 48
          },
          "indices": 49,
          "material": 9,
          "mode": 4
        }
      ]
    },
    {
      "name": "Object_10",
      "primitives": [
        {
          "attributes": {
            "NORMAL": 51,
            "POSITION": 50,
            "TEXCOORD_0": 52,
            "TEXCOORD_1": 53
          },
          "indices": 54,
          "material": 10,
          "mode": 4
        }
      ]
    }
  ],
  "nodes": [
    {
      "children": [
        1
      ],
      "matrix": [
        1.0,
        0.0,
        0.0,
        0.0,
        0.0,
        2.220446049250313e-16,
        -1.0,
        0.0,
        0.0,
        1.0,
        2.220446049250313e-16,
        0.0,
        0.0,
        0.0,
        0.0,
        1.0
      ],
      "name": "Sketchfab_model"
    },
    {
      "children": [
        2
      ],
      "name": "root"
    },
    {
      "children": [
        3
      ],
      "matrix": [
        1.0,
        0.0,
        0.0,
        0.0,
        0.0,
        2.220446049250313e-16,
        1.0,
        0.0,
        0.0,
        -1.0,
        2.220446049250313e-16,
        0.0,
        0.0,
        0.0,
        0.0,
        1.0
      ],
      "name": "GLTF_SceneRootNode"
    },
    {
      "children": [
        4,
        5,
        6,
        7,
        8,
        9,
        10,
        11,
        12,
        13,
        14
      ],
      "matrix": [
        8.332137720556965e-06,
        0.013156387953921515,
        -0.9999134509479216,
        0.0,
        -0.000104504865782451,
        0.9999134455339258,
        0.01315638701186242,
        0.0,
        0.9999999945046544,
        0.00010438620015688991,
        9.706323094160751e-06,
        0.0,
        1.1953678131103516,
        -166.88131713867188,
        -392.7392272949219,
        1.0
      ],
      "name": "BezierCurve.002_0"
    },
    {
      "mesh": 0,
      "name": "Object_4"
    },
    {
      "mesh": 1,
      "name": "Object_5"
    },
    {
      "mesh": 2,
      "name": "Object_6"
    },
    {
      "mesh": 3,
      "name": "Object_7"
    },
    {
      "mesh": 4,
      "name": "Object_8"
    },
    {
      "mesh": 5,
      "name": "Object_9"
    },
    {
      "mesh": 6,
      "name": "Object_10"
    },
    {
      "mesh": 7,
      "name": "Object_11"
    },
    {
      "mesh": 8,
      "name": "Object_12"
    },
    {
      "mesh": 9,
      "name": "Object_13"
    },
    {
      "mesh": 10,
      "name": "Object_14"
    }
  ],
  "samplers": [
    {
      "magFilter": 9729,
      "minFilter": 9987,
      "wrapS": 10497,
      "wrapT": 10497
    }
  ],
  "scene": 0,
  "scenes": [
    {
      "name": "Sketchfab_Scene",
      "nodes": [
        0
      ]
    }
  ],
  "textures": [
    {
      "sampler": 0,
      "source": 0
    }
  ]
}
